<svg xmlns="http://www.w3.org/2000/svg" width="152.866" height="119.999" viewBox="0 0 152.866 119.999">
  <g id="car-slider" transform="translate(-0.067 0)">
    <g id="Group_5" data-name="Group 5">
      <path id="Path_1" data-name="Path 1" d="M108.443,31.7S95.479-3.148,74.267.231s-52.885,19.976-58.38,30.56S23.446,64.6,23.446,64.6,4.944,71.808,3.87,81.09s8.225,34.081,13.312,33.051,23.165-5.3,23.165-5.3S150.735,68.054,150.795,60.3s-7.559-33.809-11.753-35.913S108.443,31.7,108.443,31.7Z" fill="#4e77e7"/>
      <path id="Path_2" data-name="Path 2" d="M108.443,31.7S95.479-3.148,74.267.231s-52.885,19.976-58.38,30.56S23.446,64.6,23.446,64.6,4.944,71.808,3.87,81.09s8.225,34.081,13.312,33.051,23.165-5.3,23.165-5.3S150.735,68.054,150.795,60.3s-7.559-33.809-11.753-35.913S108.443,31.7,108.443,31.7Z" fill="#fcfbf8" opacity="0.13"/>
      <path id="Path_3" data-name="Path 3" d="M61.229,50.376S48.966,19.612,46.62,19.827,23.43,30.58,23.107,32.255,32.819,61.523,34.6,62.7,61.659,51.093,61.229,50.376Z" fill="#212b4d" opacity="0.37"/>
      <path id="Path_4" data-name="Path 4" d="M96.844,35.308S82.364,5.987,80.517,5.865,53.141,15.809,52.881,17.329,63.1,47.8,65.264,48.683,97.692,36.106,96.844,35.308Z" fill="#212b4d" opacity="0.37"/>
      <g id="Group_1" data-name="Group 1">
        <path id="Path_5" data-name="Path 5" d="M146.12,32.536c-4.28,1.536-11.978,10.985-7.193,13.125s12.584,4.051,13.771.7S150.4,31,146.12,32.536Z" fill="#fff"/>
        <path id="Path_6" data-name="Path 6" d="M146.764,33.357c-3.05.761-.628,13.427,3.36,13.049S149.813,32.6,146.764,33.357Z" fill="#a6d9f4"/>
      </g>
      <g id="Group_2" data-name="Group 2">
        <path id="Path_7" data-name="Path 7" d="M1.183,96.179c3.351-1.618,13.282-.694,11.787,3.326s-4.851,9.67-7.486,8.443S-2.168,97.8,1.183,96.179Z" fill="#fff"/>
        <path id="Path_8" data-name="Path 8" d="M1.294,97.025c2.193-1.344,8.2,7.333,5.69,9.445S-.9,98.369,1.294,97.025Z" fill="#a6d9f4"/>
      </g>
      <g id="Group_3" data-name="Group 3">
        <path id="Path_9" data-name="Path 9" d="M130.388,72.382s-2.327-20.522-23.272-17.744c-22.615,3-15.9,32.618-2.509,36.084S132.774,84.875,130.388,72.382Z" fill="#212b4d"/>
        <path id="Path_10" data-name="Path 10" d="M106.422,62.1c-13.778,3.471-6.38,22.758,6.366,19.027C124.853,77.6,121.381,58.332,106.422,62.1Z" fill="#fff" opacity="0.54"/>
        <path id="Path_11" data-name="Path 11" d="M108.076,68.909c-4.212,1.061-1.951,6.958,1.946,5.818C113.711,73.647,112.65,67.756,108.076,68.909Z" fill="#fff" opacity="0.54"/>
      </g>
      <g id="Group_4" data-name="Group 4">
        <path id="Path_12" data-name="Path 12" d="M62.333,100.929S60.006,80.408,39.061,83.185c-22.615,3-15.9,32.619-2.509,36.084S64.719,113.422,62.333,100.929Z" fill="#212b4d"/>
        <path id="Path_13" data-name="Path 13" d="M39.62,93.4c-12.747,3.211-5.9,21.054,5.889,17.6C56.671,107.732,53.459,89.909,39.62,93.4Z" fill="#fff" opacity="0.54"/>
        <path id="Path_14" data-name="Path 14" d="M41.683,99c-4.213,1.062-1.951,6.959,1.946,5.818C47.318,103.737,46.257,97.847,41.683,99Z" fill="#fff" opacity="0.54"/>
        <path id="Path_15" data-name="Path 15" d="M79.571,51.621s-8.483,2.249-8.462,3.549A10.311,10.311,0,0,0,72.288,58.6s7.851-2.508,8.368-3.772S79.571,51.621,79.571,51.621Z" fill="#40506d"/>
        <path id="Path_16" data-name="Path 16" d="M48.494,64.14s-8.484,2.25-8.462,3.55a10.312,10.312,0,0,0,1.179,3.433s7.851-2.508,8.368-3.772S48.494,64.14,48.494,64.14Z" fill="#40506d"/>
      </g>
      <path id="Path_17" data-name="Path 17" d="M95.413,35.349S82.357,7.684,79.987,7.226,54.817,15.849,54.6,17.634s9.838,30.951,11.895,30.088S95.413,35.349,95.413,35.349Z" fill="#a6d9f4"/>
      <path id="Path_18" data-name="Path 18" d="M59.12,50.331S47.57,21.066,46.044,21.464,26.328,29.251,25.426,32.29s7.947,29.325,10.3,28.582S59.12,50.331,59.12,50.331Z" fill="#a6d9f4"/>
    </g>
    <g id="Group_6" data-name="Group 6">
      <path id="Path_19" data-name="Path 19" d="M89.626,23.507,58.038,15.336c1.974-1,4.6-2.163,7.355-3.3l21.025,5.247C87.488,19.3,88.582,21.435,89.626,23.507Z" fill="#fcfbf8" opacity="0.36"/>
      <path id="Path_20" data-name="Path 20" d="M54.947,19.416,92.67,29.652c1.336,2.737,2.318,4.8,2.63,5.46L57.027,26.118C56.1,23.363,55.358,20.967,54.947,19.416Z" fill="#fcfbf8" opacity="0.36"/>
    </g>
    <g id="Group_7" data-name="Group 7">
      <path id="Path_21" data-name="Path 21" d="M25.426,32.29c.209-.7,1.352-1.642,2.994-2.672L53.431,36.4c.819,1.939,1.616,3.862,2.344,5.637L25.607,34.952A7.377,7.377,0,0,1,25.426,32.29Z" fill="#fcfbf8" opacity="0.36"/>
      <path id="Path_22" data-name="Path 22" d="M50.873,30.47l-16.2-4.191c2.648-1.266,5.389-2.457,7.53-3.34l5.825,1.454C48.845,25.991,49.828,28.111,50.873,30.47Z" fill="#fcfbf8" opacity="0.36"/>
    </g>
  </g>
</svg>
